<svg id="pin-dark" width="120" height="145" viewBox="0 0 50 60" xmlns="http://www.w3.org/2000/svg">
      <defs>
        <linearGradient id="pD" x1="20%" y1="0%" x2="80%" y2="100%">
          <stop offset="0%" stop-color="#6DD5FA"/>
          <stop offset="50%" stop-color="#2AAEE0"/>
          <stop offset="100%" stop-color="#0E6EAA"/>
        </linearGradient>
        <filter id="glD" x="-40%" y="-30%" width="180%" height="180%">
          <feGaussianBlur stdDeviation="3" result="b"/>
          <feMerge><feMergeNode in="b"/><feMergeNode in="SourceGraphic"/></feMerge>
        </filter>
      </defs>
      <!-- Pin -->
      <path d="M25 2C17 2 7 10 7 20C7 33 25 58 25 58C25 58 43 33 43 20C43 10 33 2 25 2Z" fill="url(#pD)" filter="url(#glD)"/>
      <!-- Cercle nuit -->
      <circle cx="25" cy="19" r="12" fill="#0D1F3C"/>
      <!-- Toit blanc -->
      <path d="M13,18 L25,9 L37,18" fill="none" stroke="white" stroke-width="3.5" stroke-linejoin="round" stroke-linecap="round"/>
      <!-- Fenêtres dorées — mêmes proportions -->
      <rect x="19.75" y="18.5" width="4.5" height="4" rx="0.9" fill="#F0C040"/>
      <rect x="25.75" y="18.5" width="4.5" height="4" rx="0.9" fill="#F0C040"/>
      <rect x="19.75" y="23.5" width="4.5" height="3.5" rx="0.9" fill="#F0C040"/>
      <rect x="25.75" y="23.5" width="4.5" height="3.5" rx="0.9" fill="#F0C040"/>
    </svg>